<?xml version="1.0" standalone="no"?><!DOCTYPE svg PUBLIC "-//W3C//DTD SVG 1.1//EN" "http://www.w3.org/Graphics/SVG/1.1/DTD/svg11.dtd"><svg t="1729568045209" class="icon" viewBox="0 0 1024 1024" version="1.1" xmlns="http://www.w3.org/2000/svg" p-id="19050" xmlns:xlink="http://www.w3.org/1999/xlink" width="200" height="200"><path d="M511.999631 0C295.222692 0 118.857143 177.828405 118.857143 396.4202c0 213.613514 364.287658 605.220004 379.79393 621.791417a18.290269 18.290269 0 0 0 26.697117 0C540.854462 1001.644775 905.14212 610.033714 905.14212 396.4202 905.14212 177.828405 728.776571 0 511.999631 0zM193.403359 312.639707a18.271983 18.271983 0 0 1 10.651418-18.431983c4.543996-2.066284 111.881038-49.78281 189.087823-5.225138 77.211356 44.589672 89.545059 161.416992 90.025058 166.372416a18.285697 18.285697 0 0 1-10.642275 18.436554c-3.108569 1.417142-54.285663 24.182834-111.035325 24.182834-26.230833 0-53.650235-4.868567-78.061641-18.957696-77.211356-44.58053-89.545059-161.416992-90.025058-166.372416zM502.856783 639.9994h-36.571394v-54.857091h36.571394v54.857091z m54.857091 0h-36.571394v-54.857091h36.571394v54.857091z m127.99988 73.142789a18.285697 18.285697 0 0 1-18.285697-18.285698c0-90.742772-69.723363-164.571274-155.428426-164.571274s-155.428426 73.828502-155.428425 164.571274a18.285697 18.285697 0 0 1-36.571395 0c0-110.911896 86.134776-201.142669 191.99982-201.142668s191.99982 90.230773 191.99982 201.142668a18.285697 18.285697 0 0 1-18.285697 18.285698z m54.857092-234.125495c-24.402263 14.08913-51.830809 18.957697-78.061641 18.957696-56.749661 0-107.931327-22.765693-111.039896-24.182834a18.285697 18.285697 0 0 1-10.637705-18.436554c0.48-4.955424 12.809131-121.782743 90.025059-166.372416 77.197642-44.571387 184.55297 3.158854 189.087823 5.225138a18.271983 18.271983 0 0 1 10.651418 18.436554c-0.48 4.955424-12.809131 121.791886-90.025058 166.372416z" fill="#63B473" p-id="19051"></path><path d="M511.999631 493.713823c-105.865044 0-191.99982 90.230773-191.99982 201.142668a18.285697 18.285697 0 0 0 36.571395 0c0-90.742772 69.723363-164.571274 155.428425-164.571274s155.428426 73.828502 155.428426 164.571274a18.285697 18.285697 0 0 0 36.571394 0c0-110.911896-86.134776-201.142669-191.99982-201.142668z" fill="#99D59D" p-id="19052"></path><path d="M466.285389 585.142309h36.571394v54.857091h-36.571394zM521.14248 585.142309h36.571394v54.857091h-36.571394z" fill="#FFFFFF" p-id="19053"></path><path d="M819.944486 294.207724c-4.534853-2.066284-111.890181-49.796525-189.087823-5.225138-77.211356 44.589672-89.545059 161.416992-90.025059 166.372416a18.285697 18.285697 0 0 0 10.642276 18.436554c3.108569 1.417142 54.285663 24.182834 111.035325 24.182834 26.230833 0 53.659378-4.868567 78.061641-18.957696 77.211356-44.58053 89.545059-161.416992 90.025058-166.372416a18.271983 18.271983 0 0 0-10.651418-18.436554zM722.285149 447.341295c-47.506241 27.451403-115.167892 8.114278-143.017009-1.887998 5.266281-29.106258 22.367979-97.357623 69.87422-124.795312 47.506241-27.451403 115.167892-8.105135 143.017009 1.887998-5.266281 29.115401-22.367979 97.366766-69.87422 124.795312zM472.525383 473.791556a18.285697 18.285697 0 0 0 10.642275-18.436554C482.687659 450.399578 470.358528 333.57683 393.1426 288.982586c-77.206785-44.553101-184.548398 3.158854-189.087823 5.225138a18.271983 18.271983 0 0 0-10.651418 18.436554c0.48 4.955424 12.809131 121.791886 90.025058 166.372416 24.411406 14.08913 51.830809 18.957697 78.061641 18.957696 56.749661 0 107.931327-22.765693 111.039896-24.182834zM301.714114 447.341295c-47.524527-27.437689-64.617082-95.725625-69.87422-124.82274 27.79426-10.034276 95.300482-29.403401 143.017009-1.86057 47.506241 27.437689 64.607939 95.689053 69.87422 124.799883-27.849117 10.006848-95.483339 29.33483-143.017009 1.883427z" fill="#49A25A" p-id="19054"></path><path d="M649.14236 320.657985c-47.506241 27.437689-64.607939 95.689053-69.87422 124.799883 27.849117 9.997705 95.510768 29.33483 143.017009 1.883427 47.506241-27.428546 64.607939-95.67991 69.87422-124.799883-27.849117-9.988562-95.510768-29.33483-143.017009-1.883427zM374.856903 320.657985c-47.716527-27.542831-115.222749-8.173707-143.017009 1.86057 5.257138 29.097116 22.349693 97.385052 69.87422 124.82274 47.53367 27.451403 115.167892 8.123421 143.017009-1.887998C439.464842 416.347038 422.363144 348.095674 374.856903 320.657985z" fill="#C6DFED" p-id="19055"></path></svg>