<?xml version="1.0" standalone="no"?><!DOCTYPE svg PUBLIC "-//W3C//DTD SVG 1.1//EN" "http://www.w3.org/Graphics/SVG/1.1/DTD/svg11.dtd"><svg t="1729568728012" class="icon" viewBox="0 0 1024 1024" version="1.1" xmlns="http://www.w3.org/2000/svg" p-id="22385" xmlns:xlink="http://www.w3.org/1999/xlink" width="200" height="200"><path d="M460.51 59.568c32-21.312 61.312-21.312 88 0 133.312 112 277.312 192 432 240 10.626 26.688 2.626 40-24 40-144-42.626-282.688-117.312-416-224-21.376-21.312-45.374-21.312-72 0-138.688 112-272 181.376-400 208-26.688 0-34.688-13.312-24-40 160-37.312 298.626-112 416-224z m24 136c21.312 21.376 45.312 64 72 128h192c58.626 0 85.312 26.688 80 80v176c5.312 58.688-21.376 85.376-80 80h-528v224.002c0 26.626 10.626 40 32 40 80-5.376 162.626-24 248-56 26.626 5.312 32 21.312 16 48-74.686 26.626-162.686 45.312-264 56-48 5.312-74.688-18.688-80-72V403.568c0-53.312 26.626-80 80-80h248c-5.374-21.312-24-53.312-56-96 0-32 13.314-42.624 40-32z m248 176h-464c-32 0-48 16-48 48v40h560v-40c5.312-32-10.688-48-48-48z m48 136h-560v104h512c37.312 5.376 53.312-10.626 48-48v-56z m-376 224c-5.376-26.626 5.312-40 32-40 48 21.376 114.624 53.376 200 96 85.312-37.312 157.312-85.312 216-144 26.626-5.312 37.312 8 32 40-48 48-112 93.376-192 136 64 26.626 133.312 64.002 208 112.002 16 26.626 8 42.626-24 48-160-96-317.376-178.626-472-248.002z" fill="#1296db" p-id="22386"></path></svg>